<svg width="269" height="251" viewBox="0 0 269 251" fill="none" xmlns="http://www.w3.org/2000/svg">
<g clip-path="url(#clip0_9_7)">
<path d="M39.87 250.09L0 222.98V226.6L34.53 250.09H39.87Z" fill="#064000"/>
<path d="M246.09 228.63L237.34 233.22L234.55 224.47C231.4 208.78 236.65 195.89 236.7 195.77C244.87 176.71 241.6 155.33 241.45 154.38C241.43 154.26 239.17 142.56 238.44 138.05C237.73 133.61 237.34 121.8 237.43 113.56C237.47 109.62 235.96 106.24 233.16 104.05C230.33 101.83 226.46 101.13 222.55 102.13C219.54 102.9 216.57 104.57 213.46 107.24C212.52 108.04 211.33 109.13 210.37 110.48C208.81 112.67 207.91 115.42 207.53 119.12C206.81 126.07 206.59 133.46 206.86 141.56L175.77 80.61C172.15 73.51 163.42 70.67 156.31 74.3C152.15 76.42 149.47 80.3 148.68 84.58L143.84 75.09C142.08 71.65 139.09 69.1 135.42 67.9C131.92 66.76 128.19 67.01 124.87 68.55C118.5 65.59 110.74 67.63 106.74 73.65L100.85 82.52C100.55 78.18 98.33 74.02 94.44 71.44C87.79 67.03 78.8 68.85 74.39 75.49L36.55 132.5C37.74 124.49 38.36 117.12 38.44 110.13C38.48 106.41 37.9 103.58 36.6 101.23C35.8 99.78 34.74 98.56 33.9 97.66C31.11 94.66 28.35 92.66 25.45 91.55C21.68 90.11 17.76 90.36 14.69 92.24C11.66 94.1 9.75999 97.28 9.35999 101.2C8.50999 109.4 6.77999 121.09 5.55999 125.42C4.32999 129.82 0.74999 141.18 0.69999 141.34C0.64999 141.52 0.35999 142.59 -0.0100098 144.33V180.29C0.20999 181.17 0.43999 182.06 0.70999 182.94C0.74999 183.07 4.28999 195.64 -0.0100098 210.34V218.09L2.33999 212.87C2.33999 212.87 2.37999 212.77 2.39999 212.72C7.65999 196.55 3.75999 182.69 3.58999 182.1C-2.09001 163.08 3.53999 142.35 3.58999 142.2C3.62999 142.09 7.21999 130.68 8.46999 126.23C9.76999 121.6 11.5 109.79 12.36 101.51C12.67 98.54 14.06 96.16 16.28 94.79C18.55 93.4 21.5 93.23 24.39 94.34C26.85 95.28 29.25 97.03 31.72 99.69C32.44 100.47 33.35 101.51 33.99 102.67C35.03 104.56 35.49 106.91 35.45 110.09C35.35 118.87 34.37 128.29 32.47 138.88C32.34 139.58 32.73 140.27 33.39 140.54C34.05 140.8 34.81 140.57 35.2 139.98L76.9 77.15C78.59 74.6 81.18 72.86 84.18 72.25C87.18 71.64 90.24 72.25 92.79 73.94C98.06 77.44 99.5 84.56 96 89.83L56.52 149.32C56.18 149.84 56.2 150.49 56.52 150.98C56.63 151.14 56.77 151.29 56.94 151.4C57.03 151.46 57.12 151.5 57.21 151.54C57.39 151.61 57.59 151.65 57.78 151.65C58.07 151.65 58.35 151.56 58.6 151.4C58.76 151.29 58.91 151.15 59.02 150.98L61.77 146.84L109.25 75.31C112.75 70.04 119.87 68.6 125.14 72.1C130.41 75.6 131.85 82.72 128.35 87.99L78.23 163.52C78.06 163.78 77.98 164.07 77.98 164.36C77.98 164.84 78.22 165.31 78.65 165.6C78.76 165.68 78.89 165.73 79.01 165.77C79.04 165.78 79.07 165.79 79.11 165.8C79.22 165.83 79.34 165.85 79.46 165.85H79.48C79.59 165.85 79.7 165.83 79.8 165.81C79.83 165.81 79.87 165.79 79.9 165.78C79.97 165.76 80.05 165.73 80.11 165.7C80.15 165.68 80.18 165.66 80.22 165.64C80.29 165.6 80.35 165.56 80.41 165.51C80.44 165.49 80.47 165.46 80.5 165.44C80.58 165.37 80.65 165.28 80.72 165.19C80.72 165.19 80.72 165.19 80.72 165.18L82.43 162.61L121.49 103.77C124.99 98.5 132.07 97.03 137.28 100.49C139.8 102.16 141.52 104.73 142.1 107.72C142.69 110.71 142.08 113.76 140.39 116.32L99.9 177.35C99.59 177.81 99.58 178.38 99.81 178.85C99.92 179.08 100.09 179.28 100.32 179.43C100.43 179.5 100.55 179.56 100.68 179.6C100.71 179.61 100.75 179.62 100.78 179.63C100.89 179.66 101 179.68 101.12 179.68C101.13 179.68 101.14 179.68 101.15 179.68C101.26 179.68 101.37 179.66 101.47 179.64C101.51 179.64 101.54 179.62 101.58 179.61C101.65 179.59 101.72 179.56 101.79 179.53C101.83 179.51 101.86 179.49 101.9 179.47C101.96 179.43 102.03 179.39 102.08 179.34C102.11 179.32 102.14 179.29 102.17 179.27C102.25 179.19 102.33 179.11 102.4 179.01L134.15 131.18C137.65 125.91 144.73 124.44 149.94 127.9C155.15 131.36 156.55 138.46 153.06 143.72L107.27 211.65C106.07 213.43 104.9 215.25 103.77 217.01C99.46 223.72 95.39 230.05 89.32 235.02C88.07 236.04 86.82 237.05 85.58 238.05C81.46 241.37 77.2 244.81 73.21 248.58C72.68 249.08 72.14 249.6 71.61 250.11H75.98C79.66 246.69 83.46 243.61 87.47 240.38C88.72 239.37 89.97 238.36 91.23 237.34C97.68 232.07 102.06 225.23 106.31 218.62C107.43 216.87 108.59 215.07 109.77 213.32L118.29 200.68L124.94 213.49C125.91 215.36 126.86 217.29 127.77 219.15C131.23 226.2 134.81 233.49 140.61 239.47C141.74 240.63 142.87 241.78 144 242.93C146.39 245.35 148.68 247.7 150.92 250.11H154.98C152.1 246.88 149.08 243.81 146.14 240.82C145.02 239.68 143.89 238.53 142.76 237.38C137.29 231.75 133.97 224.99 130.46 217.83C129.54 215.95 128.59 214.02 127.6 212.11L120.2 197.85L134.4 176.79L136.16 180.24C136.43 180.76 136.95 181.06 137.5 181.06C137.73 181.06 137.96 181.01 138.18 180.9C138.92 180.52 139.21 179.62 138.83 178.88L136.31 173.94L150.82 152.42L159.27 168.98C159.54 169.5 160.06 169.8 160.61 169.8C160.84 169.8 161.07 169.75 161.29 169.64C162.03 169.26 162.32 168.36 161.94 167.62L152.74 149.58L155.57 145.38C159.98 138.73 158.21 129.77 151.62 125.4C147.77 122.84 143.11 122.43 139.03 123.84L142.92 117.97C145.05 114.75 145.82 110.9 145.08 107.13C144.33 103.35 142.17 100.11 138.97 97.99C135.12 95.43 130.47 95.02 126.38 96.43L130.87 89.66C134.98 83.47 133.68 75.23 128.1 70.57C130.2 70.02 132.41 70.07 134.53 70.76C137.44 71.7 139.81 73.73 141.2 76.46L182.46 157.36C182.52 157.48 182.6 157.58 182.68 157.67C182.7 157.7 182.73 157.72 182.75 157.74C182.82 157.81 182.9 157.87 182.98 157.92C183 157.93 183.02 157.95 183.04 157.96C183.14 158.02 183.25 158.07 183.37 158.1C183.4 158.1 183.42 158.11 183.45 158.12C183.55 158.14 183.64 158.16 183.74 158.16C183.76 158.16 183.78 158.16 183.8 158.16C183.81 158.16 183.83 158.16 183.84 158.16C183.92 158.16 183.99 158.15 184.07 158.13C184.1 158.13 184.13 158.13 184.17 158.11C184.27 158.08 184.38 158.05 184.48 158C185.03 157.72 185.34 157.14 185.29 156.56C185.28 156.37 185.22 156.17 185.13 155.99L152.7 92.39C149.83 86.76 152.07 79.84 157.7 76.97C163.33 74.1 170.25 76.34 173.12 81.97L207.38 149.15C207.7 149.78 208.43 150.1 209.11 149.92C209.8 149.73 210.26 149.09 210.21 148.38C209.53 137.65 209.63 128.18 210.53 119.44C210.86 116.28 211.59 113.99 212.83 112.23C213.6 111.15 214.62 110.22 215.42 109.53C218.18 107.17 220.76 105.71 223.31 105.05C226.31 104.28 229.22 104.78 231.32 106.42C233.37 108.03 234.48 110.55 234.45 113.54C234.36 121.87 234.73 133.8 235.49 138.54C236.22 143.1 238.49 154.84 238.5 154.91C238.53 155.12 241.78 176.33 233.94 194.61C233.71 195.17 228.25 208.49 231.63 225.15C231.64 225.2 231.65 225.26 231.67 225.31L234.64 234.65L205.17 250.11H211.63L236.88 236.86C236.88 236.86 236.91 236.86 236.92 236.86C237.11 236.8 237.28 236.7 237.43 236.58L247.49 231.31C248.55 230.76 249.68 230.49 250.8 230.49C253.37 230.49 255.86 231.88 257.14 234.31L265.43 250.11H268.82L259.8 232.92C257.2 227.97 251.06 226.05 246.11 228.65L246.09 228.63Z" fill="#064000"/>
<path d="M205.1 163.2C204.48 162.66 203.53 162.72 202.99 163.35C202.75 163.63 178.98 191.66 201.69 226.56C201.98 227 202.46 227.24 202.95 227.24C203.23 227.24 203.51 227.16 203.77 227C204.46 226.55 204.66 225.62 204.21 224.92C182.76 191.96 204.33 166.39 205.26 165.31C205.8 164.68 205.74 163.74 205.11 163.19L205.1 163.2Z" fill="#064000"/>
<path d="M181.29 61.59C181.77 61.59 182.23 61.36 182.52 60.94L206.52 26.35C206.99 25.67 206.82 24.73 206.14 24.26C205.46 23.79 204.52 23.96 204.05 24.64L180.05 59.23C179.58 59.91 179.75 60.85 180.43 61.32C180.69 61.5 180.99 61.59 181.28 61.59H181.29Z" fill="#064000"/>
<path d="M132.75 46.29C132.75 46.29 132.8 46.29 132.82 46.29C133.61 46.29 134.28 45.67 134.32 44.86L136.44 1.57C136.48 0.740001 135.84 0.0400005 135.02 5.05475e-07C134.18 -0.0499995 133.49 0.6 133.45 1.42L131.33 44.71C131.29 45.54 131.93 46.24 132.75 46.28V46.29Z" fill="#064000"/>
<path d="M82.24 56.18C82.47 56.18 82.7 56.13 82.91 56.02C83.65 55.65 83.95 54.75 83.58 54.01L64.29 15.66C63.92 14.92 63.02 14.62 62.28 14.99C61.54 15.36 61.24 16.26 61.61 17L80.9 55.35C81.16 55.87 81.69 56.18 82.24 56.18Z" fill="#064000"/>
</g>
<defs>
<clipPath id="clip0_9_7">
<rect width="268.8" height="250.09" fill="white"/>
</clipPath>
</defs>
</svg>
