<svg width="327" height="160" viewBox="0 0 327 160" fill="none" xmlns="http://www.w3.org/2000/svg">
<g clip-path="url(#clip0_10_14)">
<path d="M326.54 111.84C326.33 111.16 325.94 110.65 325.56 110.19C323.61 107.84 321.36 105.71 318.87 103.77V103.7C318.87 103.7 318.81 103.7 318.78 103.7C315.71 101.33 312.25 99.26 308.41 97.55C304.22 95.68 299.54 94.15 294.49 93.01C292.61 92.58 290.55 92.12 288.4 91.74C285.3 90.25 280.28 88.98 276.86 88.35C271.64 87.38 266.87 89.33 262.26 91.21C260.81 91.8 259.44 92.36 258.06 92.83C255.57 93.68 252.9 95 250.31 96.27C248.03 97.39 245.69 98.53 243.55 99.32L166.24 62.79L158.82 56.45C158.46 56.14 157.97 56.02 157.5 56.13C157.24 56.19 157.02 56.32 156.83 56.5L139.19 49C139.19 48.82 139.15 48.64 139.08 48.47C138.93 48.1 138.64 47.81 138.28 47.65L109.77 35.53C109.21 35.29 108.58 35.42 108.16 35.81L86.1598 26.46C86.1598 26.28 86.1198 26.1 86.0498 25.93C85.8998 25.56 85.6098 25.27 85.2498 25.11L80.5298 23.1C79.9298 22.85 79.2598 23.02 78.8398 23.47V23.43L65.1798 23.03L11.3898 0.16C11.2098 0.08 11.0098 0.04 10.8098 0.04L1.49976 0C0.889762 0 0.339762 0.37 0.109762 0.93C-0.120238 1.5 0.0197617 2.15 0.449762 2.57L7.04976 8.98C7.17976 9.11 7.33976 9.21 7.50976 9.28L60.9398 31.99L71.0898 41.69C71.0798 41.9 71.1098 42.11 71.1898 42.32C71.3398 42.69 71.6298 42.98 71.9898 43.14L76.7098 45.15C76.8998 45.23 77.0998 45.27 77.2998 45.27C77.6798 45.27 78.0298 45.12 78.3098 44.86L100.33 54.22C100.33 54.4 100.37 54.58 100.44 54.75C100.59 55.12 100.88 55.41 101.24 55.57L129.75 67.69C129.94 67.77 130.14 67.81 130.34 67.81C130.72 67.81 131.07 67.66 131.35 67.4L149 74.9C149 75.16 149.07 75.41 149.2 75.64C149.44 76.05 149.87 76.32 150.34 76.37L160.07 77.31L240.04 107.54C240.95 109.63 241.75 112.1 242.52 114.52C243.39 117.27 244.3 120.11 245.41 122.49C246.03 123.81 246.57 125.19 247.15 126.65C248.98 131.28 250.88 136.07 255.2 139.16C258.03 141.19 262.42 143.93 265.64 145.13C267.4 146.42 269.16 147.58 270.77 148.64C275.09 151.49 279.44 153.81 283.69 155.54C287.59 157.12 291.48 158.2 295.32 158.77C295.33 158.79 295.35 158.81 295.36 158.82L295.41 158.78C297.53 159.09 299.65 159.26 301.74 159.26C302.73 159.26 303.71 159.22 304.69 159.16C305.29 159.12 305.93 159.05 306.56 158.72C307.12 158.43 307.53 158.02 307.82 157.71C312.83 152.56 317.93 147.35 322.97 142.22H323L324.18 139.47L256.06 110.45L256.76 108.81L324.86 137.82L326.04 135.06H326.02C326.22 127.88 326.45 120.6 326.69 113.43C326.7 113.01 326.72 112.42 326.54 111.82V111.84ZM292.15 103.74L288.08 102.06H292.17L292.15 103.74ZM307.11 107.11L300.33 107.13L293.83 104.44L307.02 104.4V106.75H308.52C309.65 106.75 310.66 106.75 311.57 106.75C314.8 106.75 316.67 106.74 317.77 106.72C318.84 107.59 319.85 108.51 320.81 109.46C317.88 109.47 313.13 109.48 307.11 109.46V107.09V107.11ZM313.35 112.48C319.56 112.48 322.27 112.46 323.51 112.43C323.58 112.53 323.64 112.63 323.67 112.7C323.71 112.83 323.7 113.11 323.69 113.34C323.65 114.47 323.62 115.62 323.58 116.76L313.25 112.48H313.36H313.35ZM310.02 103.75V101.66C311.27 102.31 312.48 103.01 313.63 103.74C312.43 103.74 311.17 103.74 310.02 103.74V103.75ZM309.49 101.38L295.19 101.42L295.22 99.05H282.41L282.35 97.23L275.87 96.98L271.86 95.32C272.53 95.17 273.21 95 273.86 94.87C274.35 94.77 274.83 94.67 275.31 94.57H282.47L282.44 97.04L295.19 96.43L295.24 98.68L296.7 98.72C296.7 98.72 300.31 98.81 303.29 98.81C303.37 98.81 303.44 98.81 303.51 98.81C304.77 99.28 306 99.77 307.18 100.29C307.96 100.64 308.73 101.01 309.48 101.39L309.49 101.38ZM263.39 93.99C267.79 92.19 271.95 90.49 276.3 91.3C276.35 91.3 276.41 91.32 276.46 91.33C275.37 91.5 274.3 91.72 273.25 91.94C269.05 92.82 264.45 94.08 259.92 95.35C261.09 94.92 262.26 94.46 263.4 93.99H263.39ZM177.45 80.67L180.73 72.97L254.02 107.6L253.28 109.34L177.45 80.67ZM159.47 74.24L152.67 73.58L157.95 61.15L158.41 60.07L163.6 64.51L159.47 74.25V74.24ZM138.13 51.82L155.52 59.21L150.04 72.09L132.65 64.7L138.13 51.82ZM101.39 51.41L79.6298 42.16L85.1098 29.28L106.87 38.53L104.13 44.97L101.39 51.41ZM5.20976 3.02L10.4898 3.04L62.8498 25.3L61.2398 28.87L8.93976 6.63L5.20976 3.01V3.02ZM63.7798 30.56L65.8198 26.05L77.4998 26.39L72.2698 38.68L63.7698 30.56H63.7798ZM80.7298 26.45L82.6898 27.28L78.9698 36.03L76.5198 41.8L74.5598 40.97L80.7298 26.45ZM109.97 38.88L135.71 49.82L132.62 57.08L129.53 64.34L103.78 53.4L109.95 38.88H109.97ZM166.26 66.13L178.02 71.68L174.64 79.61L162.42 74.99L166.26 66.13ZM249.95 125.55C249.5 124.41 249.02 123.25 248.52 122.11C250.74 126.25 253.02 130.45 255.3 134.08C255.87 134.99 256.45 135.91 257.09 136.82C257.05 136.79 257 136.76 256.96 136.73C253.36 134.15 251.7 129.98 249.95 125.56V125.55ZM281.22 151.15C279.13 148.97 276.47 146.33 276.44 146.3L275.4 145.27L273.79 146.81L265.35 137.17L263.6 138.89L258.63 133.74C258.36 133.32 258.09 132.9 257.83 132.48C257.47 131.91 257.11 131.32 256.75 130.72L260.74 132.47L265.41 136.97L266.75 135.76L275.63 144.99L277.32 143.33L287.2 153.68C286.41 153.4 285.61 153.1 284.81 152.78C283.62 152.3 282.41 151.75 281.2 151.16L281.22 151.15ZM285.01 143.08L289.69 147.98L291.4 146.34C295.57 150.68 298.86 154.1 300.88 156.22C299.53 156.19 298.17 156.1 296.8 155.93C295.84 154.89 294 152.96 290.41 149.24L289.37 148.17L287.67 149.79L278.56 140.25L285 143.07L285.01 143.08ZM272.87 137.77L276.9 139.53L275.7 140.71L272.87 137.77ZM287.78 153.85L289.29 152.41C290.09 153.24 290.96 154.15 291.79 155.02C290.46 154.69 289.12 154.31 287.78 153.85ZM305.68 155.62C305.52 155.78 305.32 155.99 305.21 156.05C305.14 156.08 305.03 156.11 304.91 156.13C304.07 155.21 302.18 153.22 297.83 148.69L308.08 153.18C307.28 154 306.48 154.82 305.69 155.63L305.68 155.62ZM310.31 150.88L254.24 126.34C252.93 123.99 251.63 121.56 250.35 119.17C248.6 115.9 246.8 112.55 244.99 109.42L253.51 112.64L320.02 140.97C316.79 144.26 313.55 147.57 310.31 150.88ZM256.61 105.5L248.32 101.58C251.83 100.72 255.49 99.69 259.07 98.69C261.68 97.96 264.34 97.21 266.94 96.53L323.48 119.96C323.33 124.58 323.19 129.2 323.06 133.8L256.62 105.5H256.61Z" fill="#00213F"/>
</g>
<defs>
<clipPath id="clip0_10_14">
<rect width="326.7" height="159.26" fill="white"/>
</clipPath>
</defs>
</svg>
