<svg width="230" height="186" viewBox="0 0 230 186" fill="none" xmlns="http://www.w3.org/2000/svg">
<g clip-path="url(#clip0_12_17)">
<path d="M112.31 0C68.92 0 29.41 16.91 0 44.47V48.61C4.74 44.01 9.76 39.7 15.03 35.7L14.31 35.61L14.67 32.63L18.54 33.1C34.77 21.47 53.25 12.78 73.17 7.8L75.16 5.01L77.6 6.75H77.59C88.77 4.3 100.38 3 112.3 3C124.22 3 136.22 4.35 147.58 6.89L148.72 5.08L151.26 6.68L150.67 7.62C173.74 13.27 194.88 23.88 212.88 38.27L214.07 37.03L216.23 39.11L215.21 40.16C220.41 44.47 225.32 49.11 229.94 54.03V49.69C200.08 19.06 158.38 0 112.31 0Z" fill="#400033"/>
<path d="M148.73 5.08L147.59 6.89L145.7 9.88L142.46 12.39C142.07 12.69 141.85 13.17 141.88 13.67L142.04 16.18C142.04 16.24 142.05 16.3 142.06 16.36L142.93 21.01L141.67 25.08L139.03 30.21L133.85 34.94L126.4 42.39L117.71 48.75C117.71 48.75 117.63 48.81 117.59 48.84L110.06 55.59C109.96 55.68 109.87 55.79 109.79 55.91L106 61.9L102.19 68.31L100.65 69.75L97.02 67.62L92.4 65.16L89.42 63.31L88.75 62.19L88.17 60.46C88.08 60.18 87.91 59.94 87.68 59.76L82.51 55.66L80.24 52.46V46.92L81.7 42.83L83.25 39.35C83.31 39.21 83.35 39.07 83.37 38.92L84.26 31.28L86.18 28.96C86.56 28.5 86.63 27.87 86.36 27.34L82.44 19.5C82.37 19.36 82.27 19.22 82.16 19.11L79.02 15.97C78.81 15.76 78.54 15.61 78.24 15.56L74.99 14.94L73.34 14.57V13.74L74.56 11.03L77.6 6.76H77.61L75.17 5L73.18 7.79L72.04 9.4C71.98 9.48 71.93 9.57 71.89 9.65L70.48 12.79C70.39 12.98 70.35 13.19 70.35 13.41V15.76C70.35 16.46 70.84 17.07 71.52 17.22L74.39 17.86L77.23 18.4L79.87 21.04L83.25 27.79L81.67 29.7C81.49 29.92 81.37 30.19 81.34 30.48L80.43 38.33L78.95 41.66C78.95 41.66 78.92 41.73 78.91 41.76L77.34 46.15C77.28 46.31 77.25 46.48 77.25 46.65V52.93C77.25 53.24 77.35 53.54 77.53 53.8L80.2 57.56C80.28 57.68 80.38 57.78 80.49 57.87L85.47 61.83L85.96 63.29C85.99 63.39 86.04 63.49 86.1 63.59L87.04 65.16C87.16 65.37 87.33 65.54 87.54 65.66L90.92 67.75L95.57 70.23L100.12 72.9C100.36 73.04 100.62 73.11 100.88 73.11C101.25 73.11 101.62 72.97 101.91 72.7L104.42 70.35C104.52 70.25 104.61 70.14 104.68 70.02L108.58 63.46L112.23 57.68L119.55 51.12L128.27 44.73C128.33 44.69 128.39 44.64 128.44 44.58L135.92 37.1L141.25 32.24C141.38 32.12 141.49 31.98 141.57 31.82L144.39 26.33C144.43 26.25 144.46 26.17 144.49 26.09L145.9 21.54C145.97 21.31 145.99 21.06 145.94 20.82L145.02 15.89L144.92 14.27L147.74 12.09C147.88 11.98 148 11.85 148.09 11.7L150.67 7.61L151.26 6.67L148.72 5.07L148.73 5.08Z" fill="#400033"/>
<path d="M14.32 35.62L15.04 35.71L22.1 36.56C22.21 36.57 22.32 36.57 22.42 36.56L27.28 36.09C27.38 36.09 27.48 36.06 27.58 36.03L31.61 34.79L36.13 33.73C38.65 33.6 41.67 33.54 42.34 33.66C42.76 33.82 43.83 34.06 47.23 32.48H48.24L49.52 33.99C49.81 34.33 50.22 34.52 50.67 34.52H57.01L59.11 35.22L61.96 39.57C62 39.64 62.05 39.7 62.11 39.76L67.97 46.17L70.34 50.08V50.67H68.08C67.76 50.67 67.46 50.77 67.2 50.95L64.59 52.84L61.39 53.77L57.18 53.11L51.41 47.34C51.18 47.11 50.87 46.96 50.54 46.91L43.36 45.97C43.01 45.92 42.67 46 42.37 46.18L39.36 48.06C39.27 48.11 39.19 48.18 39.12 48.25L31.65 55.41L28.36 58.23C28.26 58.32 28.17 58.42 28.09 58.53L24.82 63.36L23.25 65.56C23.02 65.88 22.93 66.29 22.99 66.68L23.62 70.44C23.66 70.67 23.75 70.89 23.89 71.08L26.87 75.16C26.92 75.24 26.99 75.3 27.05 75.37L29.72 77.88C30 78.14 30.37 78.29 30.75 78.29H37.18C37.32 78.29 37.46 78.27 37.6 78.23L45.13 76.03C45.32 75.97 45.51 75.88 45.66 75.75L51.78 70.73C51.78 70.73 51.85 70.67 51.89 70.63L53.15 69.37L61.11 69.64L64.93 72.64L68.25 77.62C68.33 77.74 68.42 77.84 68.53 77.93L77.57 85.56L80.8 88.93L82.83 93.28L83.81 97.2L82.71 102.56L79.83 105.58L75.5 108.47L66.44 110.43L55.95 112.15L49.71 113.09C49.64 113.1 49.56 113.12 49.49 113.14L46.95 113.92C46.43 114.08 46.04 114.51 45.92 115.05C45.81 115.58 45.99 116.14 46.41 116.49L48.82 118.57L49.55 119.57L48.74 121.13L43.97 124.98L38.21 129.03C38.21 129.03 38.13 129.09 38.09 129.12L33.59 133L29.56 135.95C29.31 136.13 29.12 136.39 29.02 136.69L27.61 140.92C27.61 140.92 27.59 140.99 27.58 141.03L26.49 145.41L22.87 147.35L16.17 148.84H6.16L2.9 147.95C2.42 147.82 1.9 147.94 1.52 148.27L0 149.6V153.59L2.89 151.06L5.56 151.79C5.69 151.83 5.82 151.84 5.96 151.84H16.31C16.42 151.84 16.53 151.83 16.64 151.8L23.7 150.23C23.83 150.2 23.96 150.15 24.08 150.09L28.47 147.74C28.84 147.54 29.11 147.19 29.22 146.78L30.46 141.82L31.7 138.09L35.39 135.39C35.39 135.39 35.45 135.34 35.48 135.31L39.97 131.44L45.71 127.4C45.71 127.4 45.76 127.36 45.79 127.34L50.84 123.26C51 123.13 51.13 122.97 51.23 122.78L52.61 120.11C52.87 119.6 52.82 118.99 52.49 118.53L51.11 116.65C51.04 116.56 50.97 116.48 50.88 116.4L50.41 115.99L56.38 115.09L66.96 113.35L76.37 111.31C76.55 111.27 76.73 111.2 76.88 111.09L81.59 107.95C81.68 107.89 81.77 107.82 81.84 107.74L85.13 104.29C85.32 104.09 85.46 103.83 85.51 103.56L86.76 97.44C86.81 97.22 86.8 96.99 86.75 96.77L85.65 92.38C85.63 92.29 85.59 92.2 85.55 92.11L83.35 87.4C83.28 87.25 83.19 87.12 83.07 87L79.62 83.39C79.62 83.39 79.55 83.32 79.5 83.28L70.56 75.73L67.23 70.73C67.14 70.6 67.03 70.48 66.91 70.38L62.52 66.93C62.27 66.73 61.96 66.62 61.64 66.61L52.54 66.3C52.12 66.28 51.72 66.44 51.43 66.74L49.76 68.41L43.94 73.19L36.91 75.24H31.29L29.16 73.23L26.47 69.55L26 66.75L27.23 65.03L30.41 60.33L33.61 57.58L41.03 50.47L43.45 48.96L49.6 49.76L55.36 55.52C55.58 55.74 55.88 55.89 56.19 55.94L61.21 56.72C61.43 56.75 61.65 56.74 61.86 56.68L65.62 55.58C65.78 55.53 65.94 55.46 66.08 55.36L68.51 53.6H71.79C72.62 53.6 73.29 52.93 73.29 52.1V49.59C73.29 49.32 73.21 49.05 73.07 48.81L70.4 44.42C70.35 44.34 70.29 44.26 70.22 44.19L64.34 37.77L61.27 33.09C61.08 32.81 60.81 32.6 60.49 32.49L57.67 31.55C57.52 31.5 57.36 31.47 57.2 31.47H51.31L50.03 29.96C49.74 29.62 49.33 29.43 48.88 29.43H46.84C46.62 29.43 46.4 29.48 46.2 29.58C44.99 30.15 43.6 30.67 43.11 30.73C42.6 30.6 41.12 30.42 35.79 30.7C35.7 30.7 35.61 30.72 35.53 30.74L30.82 31.84C30.82 31.84 30.75 31.86 30.72 31.87L26.79 33.08L22.24 33.52L18.5 33.07L14.63 32.6L14.27 35.58L14.32 35.62Z" fill="#400033"/>
<path d="M51.27 184.98L46.33 184.02L40.84 183.24C40.72 183.22 40.6 183.22 40.48 183.24L32.77 184.01L25.38 183.42L22.9 182.06L20.13 177.1C20.13 177.1 20.09 177.03 20.07 177L15.68 170.41C15.68 170.41 15.62 170.33 15.59 170.29C10.45 164 9.32 162.99 8.56 162.89C7.56 162.39 3.8 160.11 0 157.74V161.28C4.92 164.34 6.8 165.4 7.67 165.75C8.38 166.36 11.04 169.46 13.23 172.13L17.55 178.61L20.5 183.89C20.64 184.14 20.84 184.34 21.09 184.47L23.41 185.74H52.38L52.08 185.42C51.87 185.19 51.59 185.04 51.28 184.98H51.27Z" fill="#400033"/>
<path d="M5.57 180.35L0 177.92V181.17L3.97 182.89L7.99 185.74H12.99L12.71 185.44L5.57 180.35Z" fill="#400033"/>
<path d="M214.08 37.04L212.89 38.28L209.38 41.92L202.76 46.44L194.93 49.36C194.72 49.44 194.53 49.56 194.37 49.73L190.76 53.49C190.55 53.71 190.41 54 190.36 54.31L189.37 60.95L185.16 63.26C185.01 63.34 184.87 63.46 184.75 63.59L181.46 67.35C181.2 67.64 181.07 68.03 181.09 68.42L181.4 73.91C181.43 74.44 181.73 74.91 182.2 75.15L185.18 76.72C185.42 76.85 185.7 76.9 185.98 76.89L195.56 76.26L201.99 75.79C202.44 75.76 202.85 75.53 203.11 75.16L204.96 72.54L207.47 69.25C207.47 69.25 207.53 69.17 207.55 69.13L210.18 64.89L212.65 63.41H216.13L218.79 64.68L219.37 67.11V72.51L218.16 74.68L212.73 78.35L207.33 81.12H203.39L195.16 80.19C195.01 80.17 194.86 80.18 194.71 80.21L188.91 81.31C188.57 81.37 188.26 81.55 188.04 81.82L185.53 84.8C185.47 84.87 185.42 84.94 185.37 85.02L183.58 88.15L182.08 89.7L180.07 89.31L179.14 87.03L179.68 84.34C179.72 84.13 179.72 83.91 179.67 83.7L178.89 80.41C178.85 80.22 178.76 80.04 178.65 79.89L176.3 76.6C176.02 76.21 175.56 75.97 175.08 75.97H165.51C165.21 75.97 164.92 76.06 164.68 76.22L162.33 77.79C161.88 78.09 161.62 78.62 161.67 79.16L162.04 83.73L158.62 84.67L152.34 86.71C151.67 86.93 151.24 87.58 151.31 88.28L151.62 91.5C151.65 91.76 151.74 92 151.88 92.21L154.23 95.58C154.36 95.76 154.52 95.91 154.71 96.02L160.67 99.47C160.9 99.6 161.16 99.67 161.42 99.67H165.46L167.43 100.19L168.08 102.46V109.22H164.87C164.63 109.22 164.39 109.28 164.18 109.39L160.45 111.33L156.74 112.07C156.3 112.16 155.92 112.44 155.71 112.83L153.2 117.54C153.16 117.61 153.14 117.67 153.11 117.74L151.54 122.13C151.42 122.46 151.42 122.81 151.54 123.14L152.32 125.34C152.37 125.48 152.44 125.62 152.54 125.74L156.77 131.33L158.42 136.87C158.56 137.36 158.95 137.74 159.43 137.88L159.55 137.92L151.81 145.81L147.36 149.03C147.29 149.08 147.23 149.14 147.17 149.2L140.9 155.63C140.9 155.63 140.82 155.72 140.78 155.77L137.17 160.48C136.97 160.74 136.86 161.06 136.86 161.39V165.63C136.86 165.77 136.88 165.91 136.92 166.04L138.5 171.55L140.67 178.67L141.85 185.78H144.89L143.61 178.08C143.6 178.02 143.58 177.95 143.57 177.89L141.38 170.7L139.87 165.41V161.89L143.11 157.66L149.23 151.39L153.67 148.17C153.74 148.12 153.8 148.07 153.86 148L161.65 140.06L163.53 138.34C163.93 137.97 164.1 137.42 163.98 136.9C163.86 136.37 163.46 135.95 162.94 135.8L161.06 135.24L159.57 130.22C159.52 130.05 159.44 129.89 159.33 129.74L155.08 124.12L154.55 122.65L155.9 118.87L158.02 114.89L161.25 114.24C161.39 114.21 161.52 114.16 161.65 114.1L165.25 112.23H169.59C170.42 112.23 171.09 111.56 171.09 110.73V102.26C171.09 102.12 171.07 101.98 171.03 101.85L170.09 98.56C169.94 98.05 169.54 97.66 169.03 97.52L166.05 96.74C165.93 96.71 165.8 96.69 165.67 96.69H161.84L156.52 93.61L154.58 90.83L154.42 89.2L159.48 87.55L164.03 86.3C164.72 86.11 165.19 85.45 165.13 84.73L164.73 79.81L165.97 78.98H174.31L176.04 81.41L176.68 84.1L176.12 86.91C176.06 87.2 176.09 87.5 176.2 87.77L177.61 91.22C177.8 91.69 178.21 92.03 178.71 92.12L182.32 92.83C182.82 92.93 183.33 92.77 183.69 92.4L185.89 90.13C185.98 90.04 186.05 89.94 186.11 89.83L187.93 86.65L190.01 84.18L195.07 83.22L203.16 84.14C203.22 84.14 203.27 84.14 203.33 84.14H207.72C207.96 84.14 208.19 84.08 208.41 83.97L214.21 80.99C214.26 80.96 214.31 80.93 214.36 80.9L220.16 76.98C220.36 76.85 220.52 76.67 220.63 76.47L222.2 73.65C222.32 73.43 222.39 73.18 222.39 72.92V66.96C222.39 66.84 222.38 66.73 222.35 66.61L221.57 63.32C221.47 62.88 221.17 62.51 220.76 62.31L217.15 60.58C216.95 60.48 216.73 60.43 216.5 60.43H212.26C211.99 60.43 211.72 60.5 211.49 60.64L208.35 62.52C208.15 62.64 207.97 62.81 207.85 63.02L205.06 67.51L202.56 70.79L201.09 72.88L186.23 73.9L184.37 72.92L184.14 68.89L186.86 65.79L191.49 63.25C191.9 63.02 192.18 62.62 192.25 62.16L193.28 55.26L196.32 52.09L204 49.23C204.11 49.19 204.22 49.13 204.32 49.06L211.22 44.35C211.3 44.29 211.38 44.23 211.46 44.15L215.26 40.21L216.28 39.16L214.12 37.08L214.08 37.04Z" fill="#400033"/>
</g>
<defs>
<clipPath id="clip0_12_17">
<rect width="229.96" height="185.74" fill="white"/>
</clipPath>
</defs>
</svg>
